<svg id="Calque_1" data-name="Calque 1" xmlns="http://www.w3.org/2000/svg" xmlns:xlink="http://www.w3.org/1999/xlink" viewBox="0 0 1941.58 2860.52"><defs><style>.cls-1,.cls-2{fill:#0669bf;}.cls-2{stroke:#0669bf;stroke-width:100px;}.cls-2,.cls-3,.cls-4,.cls-5,.cls-6{stroke-miterlimit:10;}.cls-3{fill:none;}.cls-3,.cls-4,.cls-5,.cls-6{stroke:#fff;fill-rule:evenodd;}.cls-4{fill:url(#Dégradé_sans_nom_13);}.cls-5{fill:url(#Dégradé_sans_nom_13-2);}.cls-6{fill:url(#Dégradé_sans_nom_13-12);}</style><radialGradient id="Dégradé_sans_nom_13" cx="2533.81" cy="1901.08" r="174.72" gradientUnits="userSpaceOnUse"><stop offset="0" stop-color="#f2ae2e"/><stop offset="0.37" stop-color="#f29e23"/><stop offset="1" stop-color="#f2790a"/></radialGradient><radialGradient id="Dégradé_sans_nom_13-2" cx="2532.96" cy="1893.74" r="164.18" xlink:href="#Dégradé_sans_nom_13"/><radialGradient id="Dégradé_sans_nom_13-12" cx="2533.81" cy="1901.07" r="174.72" xlink:href="#Dégradé_sans_nom_13"/></defs><title>icone</title><path class="cls-1" d="M2606.5,1755a3.73,3.73,0,0,1-.79-.32c.86,1.19,1.7,2.4,2.59,3.53a3.85,3.85,0,0,1,.28-1,1.64,1.64,0,0,1-.14-.22A3.39,3.39,0,0,1,2606.5,1755Z" transform="translate(-1882.38 -1404.38)"/><path class="cls-2" d="M2945.3,1460.83a51.23,51.23,0,0,0-51.85,1.23c-94.84,58.8-179.83,130.64-256,211.18a3.28,3.28,0,0,1,.86.84,3.09,3.09,0,0,1,1.36.88,13.15,13.15,0,0,0,1.2,1.16l0,0,.08.06.63.46a18,18,0,0,1,2.95,2.5l.14.19c.15.06.3.1.45.17,2.85,1.3,4.93,3.64,7.45,5.42a4.71,4.71,0,0,1,1.24,1.28,4,4,0,0,1,1.56.94,3.49,3.49,0,0,1,.62.88,4,4,0,0,1,1.41.88,3.47,3.47,0,0,1,.64.91,3.28,3.28,0,0,1,1.66,1.42,3.37,3.37,0,0,1,2.74,2.26,77.34,77.34,0,0,0,3.57,2.86,3.34,3.34,0,0,1,1.4.8,4.07,4.07,0,0,1,1.64,1,3.5,3.5,0,0,1,.52.66,3.41,3.41,0,0,1,1.56,1.46l.08.18a5.44,5.44,0,0,1,1.1.68l.47.39.61.46c.61.46,1.23.92,1.82,1.41a13.78,13.78,0,0,1,1.47,1.38,2.92,2.92,0,0,1,1,.38,23.5,23.5,0,0,1,3.34,2.62l.06.08a3,3,0,0,1,1,.74c.7.79,1.52,1.47,2.26,2.23a3,3,0,0,1,.37.16,21.28,21.28,0,0,1,3.43,2.54c.49.41,1,.85,1.45,1.27l.71.61.12.1.12.09a5,5,0,0,1,1.12,1.13,11.87,11.87,0,0,1,2.93,1.85c.45.35.88.72,1.3,1.09l.62.53.13.13a5.25,5.25,0,0,1,.85.85c1.69,1.22,3.42,2.38,5.05,3.68l.2.17a3.82,3.82,0,0,1,1.16.78c.39.39.79.77,1.2,1.13a3.69,3.69,0,0,1,1,1.09,80.25,80.25,0,0,0,7.16,5.94,3.31,3.31,0,0,1,1.65,1.65,3.39,3.39,0,0,1,1.75.91,3.29,3.29,0,0,1,1.63,1.11c46.8-49.17,97-94.59,150.92-135v1386.5a51.19,51.19,0,0,0,102.38,0V1505.58A51.12,51.12,0,0,0,2945.3,1460.83Z" transform="translate(-1882.38 -1404.38)"/><path class="cls-1" d="M2635.06,1806.31a14,14,0,0,1,.56,1.36,3.21,3.21,0,0,1,1.5.59l.21.16.15-.18s0,0,0,0Z" transform="translate(-1882.38 -1404.38)"/><path class="cls-1" d="M2454.31,2029.69a33.36,33.36,0,0,0-1.91,5,3,3,0,0,1,.31.77,43.18,43.18,0,0,0,1.54-4.09Z" transform="translate(-1882.38 -1404.38)"/><path class="cls-2" d="M2042.85,3231.62c27.26-168.34,126-675.57,379.13-1095.53a3.45,3.45,0,0,1-2-1.63,2.69,2.69,0,0,0-.16-.29,4.41,4.41,0,0,1-3.45-1.88,9.08,9.08,0,0,1-.89-1.63,3.33,3.33,0,0,1-2.21-1.36,3.47,3.47,0,0,1-2.83-3,3.37,3.37,0,0,1-2.74-2.13h-.19a3.48,3.48,0,0,1-3.57-3,3.41,3.41,0,0,1-3.11-2.42h-.09a3.43,3.43,0,0,1-3.49-2.66,152.74,152.74,0,0,0-2.73-2,3.34,3.34,0,0,1-1.25-1,3.43,3.43,0,0,1-3.37-2.76,3.32,3.32,0,0,1-2.29-1.44,3.42,3.42,0,0,1-3.34-2.56,13.45,13.45,0,0,0-3.52-3.09,16,16,0,0,0-4.31-3.42c-.09-.08-.16-.17-.24-.25A3.32,3.32,0,0,1,2374,2098a11.6,11.6,0,0,0-4.32-3.55,2005.54,2005.54,0,0,0-4.13-3.45,1805.75,1805.75,0,0,0-4.89-3.71,3.34,3.34,0,0,1-1.8-1.68,53.69,53.69,0,0,0-4.24-3.23,3.32,3.32,0,0,1-2.17-1.9,3.23,3.23,0,0,1-1.51-1.28,3.33,3.33,0,0,1-2.4-1.9,3.29,3.29,0,0,1-2.26-1.58,3.24,3.24,0,0,1-1.8-1.33,3.33,3.33,0,0,1-2.24-2,12.06,12.06,0,0,1-2.28-1.58c-321.42,522.57-402.83,1168.82-407.23,1205.93a51.19,51.19,0,0,0,50.8,57.28h1714.1s51.18-22.94,51.18-51.2C3748.82,3266.18,2042.85,3231.62,2042.85,3231.62Z" transform="translate(-1882.38 -1404.38)"/><path class="cls-2" d="M3726.75,3236.93H2169.26a85.63,85.63,0,0,1,12.91,28.19c5.81,23.15,12.76,45.45,17,67.57.9.26,2,.61,3.05.95H3677.48c-37.65,443.65-578.92,788.13-584.59,791.67-22.19,13.95-29.2,43.7-15.56,66.47s42.69,29.95,64.83,16c25.83-16.12,631.8-401.35,631.8-922.51C3774,3258.59,3752.85,3236.93,3726.75,3236.93Z" transform="translate(-1882.38 -1404.38)"/><path class="cls-3" d="M2454.31,2029.69a33.36,33.36,0,0,0-1.91,5,3,3,0,0,1,.31.77,43.18,43.18,0,0,0,1.54-4.09Z" transform="translate(-1882.38 -1404.38)"/><path class="cls-3" d="M2441.5,2075.38a3.52,3.52,0,0,1-.9-.29l3.89,3.1a9.26,9.26,0,0,1-.77-1.45A3.3,3.3,0,0,1,2441.5,2075.38Z" transform="translate(-1882.38 -1404.38)"/><path class="cls-3" d="M2438.68,2072.43a3.39,3.39,0,0,1-2.74-2.14h-.19a3.82,3.82,0,0,1-1.57-.31l5.28,4.2A3.84,3.84,0,0,1,2438.68,2072.43Z" transform="translate(-1882.38 -1404.38)"/><path class="cls-3" d="M2432.18,2067.3a3.39,3.39,0,0,1-3.11-2.43h-.1a3.71,3.71,0,0,1-1.65-.36l5.58,4.44A3.87,3.87,0,0,1,2432.18,2067.3Z" transform="translate(-1882.38 -1404.38)"/><path class="cls-3" d="M2415.85,2055a3.7,3.7,0,0,1-.59-.05l3.38,2.68a3.81,3.81,0,0,1-.5-1.19A3.29,3.29,0,0,1,2415.85,2055Z" transform="translate(-1882.38 -1404.38)"/><path class="cls-3" d="M2529.59,1783.45l-1.07-.3a3.45,3.45,0,0,1-2.63-3.92,46.43,46.43,0,0,0-8.31-1.28c2.8,3.56,6.33,6.55,9.56,9.77l.36.38a30.43,30.43,0,0,1,4.25-.51,17.15,17.15,0,0,1,2,.13c-.78-.48-1.57-1-2.36-1.42A3.53,3.53,0,0,1,2529.59,1783.45Z" transform="translate(-1882.38 -1404.38)"/><path class="cls-3" d="M2637.44,1808.2l-2.38-1.89a14,14,0,0,1,.56,1.36,3.21,3.21,0,0,1,1.5.59l.21.16.15-.18S2637.45,1808.22,2637.44,1808.2Z" transform="translate(-1882.38 -1404.38)"/><path class="cls-3" d="M2608.58,1757.22a1.64,1.64,0,0,1-.14-.22,3.39,3.39,0,0,1-1.94-2,3.73,3.73,0,0,1-.79-.32c.86,1.19,1.7,2.4,2.59,3.53A3.85,3.85,0,0,1,2608.58,1757.22Z" transform="translate(-1882.38 -1404.38)"/><path class="cls-3" d="M2423.93,2061.06a3.16,3.16,0,0,1-1.17-.85,3.24,3.24,0,0,1-1.25-1,3.52,3.52,0,0,1-1.16-.21l5.83,4.64a3.7,3.7,0,0,1-.69-1.39A3.29,3.29,0,0,1,2423.93,2061.06Z" transform="translate(-1882.38 -1404.38)"/><path class="cls-4" d="M2416.69,1899.85c0-4.86-5.06-9.72-9.73-9.72h-49c-4.66,0-9.72,4.86-9.72,9.72s5.06,9.73,9.72,9.73h49C2411.63,1909.58,2416.69,1904.72,2416.69,1899.85Z" transform="translate(-1882.38 -1404.38)"/><path class="cls-5" d="M2463,1795c2.34,4.86,9.73,7.4,12.06,2.53,5.07-2.53,7.79-7.39,5.07-12.26l-26.85-41.43c-2.34-4.87-17.12,4.86-14.79,7.19Z" transform="translate(-1882.38 -1404.38)"/><path class="cls-4" d="M2397.24,1831.57l21.78,12.25c5.07,2.34,9.73,2.34,14.79-2.53,2.34-4.86,0-9.72-5.06-12.06L2407,1814.45c-5.06-2.34-9.72,0-12.45,4.86C2389.84,1821.84,2392.18,1829.23,2397.24,1831.57Z" transform="translate(-1882.38 -1404.38)"/><path class="cls-4" d="M2533.81,1782.93c7.39,0,9.73-2.53,9.73-7.39v-26.85c0-4.86-2.34-9.73-9.73-9.73-5.06,0-7.39,4.87-7.39,9.73v26.85C2526.42,1780.4,2528.75,1782.93,2533.81,1782.93Z" transform="translate(-1882.38 -1404.38)"/><path class="cls-4" d="M2607,1797.52l24.52-44c2.33-4.86,0-9.72-4.68-12.06-2.72-2.53-9.72-2.53-12.44,2.34l-24.13,44c-2.72,4.87,0,9.73,2.33,12.06C2597.24,1802.39,2604.63,1799.85,2607,1797.52Z" transform="translate(-1882.38 -1404.38)"/><path class="cls-4" d="M2648.59,1846.16l22.18-12.06c4.67-2.53,7-9.73,4.67-12.26-2.34-4.86-9.73-7.39-12.06-4.86l-24.52,14.59c-5.05,2.53-5.05,7.39-2.33,12.25C2638.86,1848.69,2643.92,1848.69,2648.59,1846.16Z" transform="translate(-1882.38 -1404.38)"/><path class="cls-4" d="M2477.64,2006.75a6.07,6.07,0,0,1-.65-1,9.72,9.72,0,0,0-1.44-1.51,4,4,0,0,1-.71-.58,12.23,12.23,0,0,0-2.12-1.26c-2.33-2.53-9.73-2.53-12.06,2.34l-24.51,44c-2.34,4.87,0,9.73,2.33,12.06,4.46,2.24,8.61.53,13-1.5a3.5,3.5,0,0,1,1.82-.88l17.31-30.93a6.2,6.2,0,0,1,.42-.75l6.75-12h0c.1-.29.2-.59.28-.88l.51-1.73A8.1,8.1,0,0,0,2477.64,2006.75Z" transform="translate(-1882.38 -1404.38)"/><path class="cls-4" d="M2604.63,2007.25c-2.34-4.87-9.73-7.4-14.4-4.87-2.72,2.34-5.06,9.73-2.72,12.26l24.5,43.77c2.35,4.87,9.73,7.2,12.07,4.87,5.05-2.54,7.4-9.73,5.05-14.6Z" transform="translate(-1882.38 -1404.38)"/><path class="cls-4" d="M2531.48,2017c-5.06,0-7.4,4.87-7.4,9.73v26.85c0,4.86,2.34,9.73,7.4,9.73s9.72-4.87,9.72-9.73V2026.7C2541.2,2021.84,2536.53,2017,2531.48,2017Z" transform="translate(-1882.38 -1404.38)"/><path class="cls-4" d="M2431.47,1958.4c-2.72-4.85-7.39-4.85-12.45-2.52l-24.51,12.26c-2.33,2.53-4.67,7.39-2.33,12.26s7.39,7.39,12.45,4.86l24.12-14.59c2.68-2.48,5-7.21,2.84-12Z" transform="translate(-1882.38 -1404.38)"/><path class="cls-4" d="M2670.77,1970.67l-24.51-12.26c-2.34-4.86-9.73-2.53-12.45,2.53-2.33,4.87,0,9.73,5.05,12.06l21.8,14.79c5.05,2.34,10.11,0,12.44-5.06C2675.44,1977.87,2675.44,1973,2670.77,1970.67Z" transform="translate(-1882.38 -1404.38)"/><path class="cls-6" d="M2587.51,1807.25c-51-29.38-117.12-12.26-149,38.91-21.31,37.51-17.92,84,6.38,117.8a40.73,40.73,0,0,1,2.81,3.72,106.46,106.46,0,0,0,7.39,8.4L2457,1978c.4.39.81.79,1.21,1.2A105.53,105.53,0,0,0,2469,1988a24,24,0,0,1,2.59,1.8c2.74,1.83,5.59,3.57,8.55,5.18a108.93,108.93,0,0,0,32.21,12.08,4.26,4.26,0,0,1,.89.18c43.8,8.49,90.1-10.58,113.58-51.37A107.43,107.43,0,0,0,2587.51,1807.25Z" transform="translate(-1882.38 -1404.38)"/><path class="cls-4" d="M2709.68,1892.66h-49c-4.68,0-9.73,4.86-9.73,9.72s5.05,9.73,9.73,9.73h49c4.67,0,9.73-4.86,9.73-9.73S2714.35,1892.66,2709.68,1892.66Z" transform="translate(-1882.38 -1404.38)"/></svg>