<?xml version="1.0" encoding="utf-8"?>
<!-- Generator: Adobe Illustrator 23.0.3, SVG Export Plug-In . SVG Version: 6.00 Build 0)  -->
<svg version="1.1" id="Calque_1" xmlns="http://www.w3.org/2000/svg" xmlns:xlink="http://www.w3.org/1999/xlink" x="0px" y="0px"
	 viewBox="0 0 5669.29 5669.29" style="enable-background:new 0 0 5669.29 5669.29;" xml:space="preserve">
<style type="text/css">
	.st0{fill:#0669BF;}
	.st1{fill:#0669BF;stroke:#0669BF;stroke-width:100;stroke-miterlimit:10;}
	.st2{fill-rule:evenodd;clip-rule:evenodd;fill:none;stroke:#FFFFFF;stroke-miterlimit:10;}
	.st3{fill-rule:evenodd;clip-rule:evenodd;fill:url(#SVGID_1_);stroke:#FFFFFF;stroke-miterlimit:10;}
	.st4{fill-rule:evenodd;clip-rule:evenodd;fill:url(#SVGID_2_);stroke:#FFFFFF;stroke-miterlimit:10;}
	.st5{fill-rule:evenodd;clip-rule:evenodd;fill:url(#SVGID_3_);stroke:#FFFFFF;stroke-miterlimit:10;}
	.st6{fill-rule:evenodd;clip-rule:evenodd;fill:url(#SVGID_4_);stroke:#FFFFFF;stroke-miterlimit:10;}
	.st7{fill-rule:evenodd;clip-rule:evenodd;fill:url(#SVGID_5_);stroke:#FFFFFF;stroke-miterlimit:10;}
	.st8{fill-rule:evenodd;clip-rule:evenodd;fill:url(#SVGID_6_);stroke:#FFFFFF;stroke-miterlimit:10;}
	.st9{fill-rule:evenodd;clip-rule:evenodd;fill:url(#SVGID_7_);stroke:#FFFFFF;stroke-miterlimit:10;}
	.st10{fill-rule:evenodd;clip-rule:evenodd;fill:url(#SVGID_8_);stroke:#FFFFFF;stroke-miterlimit:10;}
	.st11{fill-rule:evenodd;clip-rule:evenodd;fill:url(#SVGID_9_);stroke:#FFFFFF;stroke-miterlimit:10;}
	.st12{fill-rule:evenodd;clip-rule:evenodd;fill:url(#SVGID_10_);stroke:#FFFFFF;stroke-miterlimit:10;}
	.st13{fill-rule:evenodd;clip-rule:evenodd;fill:url(#SVGID_11_);stroke:#FFFFFF;stroke-miterlimit:10;}
	.st14{fill-rule:evenodd;clip-rule:evenodd;fill:url(#SVGID_12_);stroke:#FFFFFF;stroke-miterlimit:10;}
	.st15{fill-rule:evenodd;clip-rule:evenodd;fill:url(#SVGID_13_);stroke:#FFFFFF;stroke-miterlimit:10;}
</style>
<path class="st0" d="M2606.5,1754.96c-0.29-0.08-0.55-0.19-0.79-0.32c0.85,1.2,1.7,2.4,2.59,3.53c0.05-0.33,0.14-0.65,0.28-0.95
	c-0.04-0.08-0.1-0.14-0.14-0.22C2607.48,1756.62,2606.83,1755.86,2606.5,1754.96z"/>
<path class="st1" d="M2945.3,1460.83c-16.17-9-36.04-8.56-51.85,1.23c-94.84,58.8-179.83,130.64-255.97,211.18
	c0.34,0.23,0.62,0.52,0.85,0.85c0.52,0.18,1,0.46,1.36,0.88c0.38,0.43,0.78,0.78,1.2,1.16c0.01,0.01,0.01,0.01,0.02,0.02
	c0.03,0.02,0.04,0.03,0.08,0.06c0.21,0.15,0.42,0.31,0.63,0.46c1.04,0.77,2.1,1.53,2.95,2.5c0.05,0.06,0.09,0.13,0.14,0.19
	c0.15,0.05,0.3,0.1,0.45,0.17c2.85,1.3,4.93,3.64,7.45,5.42c0.5,0.35,0.92,0.79,1.23,1.28c0.59,0.19,1.16,0.53,1.56,0.94
	c0.25,0.25,0.45,0.56,0.63,0.88c0.54,0.2,1.04,0.51,1.41,0.88c0.26,0.26,0.47,0.58,0.64,0.91c0.74,0.29,1.29,0.8,1.66,1.42
	c1.42,0.21,2.33,1.13,2.74,2.26c1,0.27,1.7,0.93,2.12,1.74c0.61,0.24,1.09,0.63,1.45,1.12c0.56,0.16,1.02,0.44,1.39,0.8
	c0.62,0.19,1.22,0.54,1.65,0.96c0.21,0.21,0.38,0.43,0.52,0.66c0.65,0.33,1.29,0.86,1.56,1.46c0.03,0.06,0.05,0.12,0.08,0.19
	c0.39,0.18,0.77,0.4,1.1,0.68c0.11,0.09,0.47,0.38,0.47,0.38c0.2,0.15,0.41,0.31,0.61,0.46c0.61,0.46,1.23,0.93,1.82,1.41
	c0.53,0.43,1.01,0.89,1.46,1.38c0.35,0.08,0.69,0.2,0.96,0.38c1.17,0.79,2.33,1.63,3.34,2.62c0.03,0.02,0.04,0.05,0.07,0.08
	c0.38,0.18,0.74,0.41,1.02,0.73c0.7,0.8,1.51,1.48,2.25,2.23c0.12,0.05,0.25,0.1,0.37,0.16c1.24,0.7,2.36,1.61,3.44,2.54
	c0.49,0.42,0.96,0.85,1.44,1.27c0.24,0.21,0.47,0.41,0.71,0.61c0.06,0.05,0.1,0.08,0.12,0.1c0.04,0.03,0.07,0.05,0.12,0.09
	c0.45,0.33,0.83,0.71,1.12,1.13c1.08,0.43,2.02,1.13,2.93,1.85c0.45,0.35,0.88,0.72,1.31,1.1c0.2,0.18,0.41,0.35,0.61,0.53
	c0.07,0.06,0.11,0.1,0.14,0.12c0.33,0.26,0.61,0.55,0.85,0.86c1.69,1.22,3.41,2.38,5.05,3.67c0.07,0.05,0.13,0.11,0.19,0.17
	c0.44,0.19,0.84,0.45,1.16,0.78c0.39,0.39,0.79,0.77,1.2,1.13c0.4,0.3,0.73,0.66,0.99,1.09c1.27,0.24,2.1,1.06,2.52,2.08
	c0.84,0.32,1.43,0.94,1.79,1.67c1.46,0.17,2.4,1.07,2.84,2.19c0.77,0.34,1.31,0.95,1.65,1.65c0.72,0.14,1.31,0.47,1.75,0.91
	c0.69,0.21,1.23,0.61,1.63,1.11c46.81-49.18,97.03-94.59,150.92-135.05v1386.5c0,28.25,22.93,51.18,51.19,51.18
	c28.26,0,51.19-22.93,51.19-51.18V1505.58C2971.61,1486.98,2961.58,1469.87,2945.3,1460.83z"/>
<path class="st0" d="M2635.06,1806.31c0.21,0.45,0.4,0.91,0.56,1.36c0.5,0.06,1.01,0.24,1.5,0.58c0.07,0.05,0.14,0.11,0.21,0.17
	c0.05-0.06,0.1-0.12,0.15-0.18c-0.02-0.01-0.03-0.02-0.05-0.03C2636.65,1807.57,2635.86,1806.94,2635.06,1806.31z"/>
<path class="st0" d="M2454.31,2029.69c-0.77,1.65-1.44,3.31-1.91,4.97c0.14,0.24,0.24,0.5,0.31,0.78c0.58-1.32,1.08-2.68,1.54-4.09
	C2454.27,2030.79,2454.29,2030.24,2454.31,2029.69z"/>
<path class="st1" d="M2042.85,3231.62c27.25-168.34,126.01-675.56,379.13-1095.53c-0.85-0.27-1.6-0.8-2.03-1.63
	c-0.05-0.1-0.1-0.2-0.16-0.29c-1.34-0.02-2.72-0.78-3.46-1.88c-0.37-0.55-0.66-1.09-0.88-1.63c-0.99-0.17-1.73-0.67-2.22-1.36
	c-1.64-0.29-2.58-1.55-2.82-2.96c-1.39-0.19-2.3-1.06-2.74-2.14c-0.07,0-0.13,0.01-0.19,0.01c-2.1,0-3.28-1.41-3.57-3
	c-1.66-0.12-2.7-1.15-3.11-2.42c-0.03,0-0.06,0-0.1,0c-1.94,0-3.11-1.21-3.49-2.66c-0.66-0.23-1.17-0.65-1.55-1.16
	c-0.47-0.2-0.86-0.5-1.18-0.85c-0.52-0.24-0.93-0.6-1.25-1.03c-1.9-0.06-3.03-1.3-3.37-2.76c-1.04-0.17-1.8-0.71-2.29-1.44
	c-1.83-0.05-2.94-1.18-3.34-2.55c-0.53-0.33-0.93-0.79-1.21-1.32c-1.1-0.24-1.87-0.92-2.31-1.77c-1.27-0.29-2.09-1.18-2.47-2.25
	c-0.67-0.17-1.31-0.53-1.84-1.17c-0.09-0.08-0.17-0.17-0.25-0.25c-1-0.24-1.72-0.85-2.16-1.62c-1.02-0.38-1.7-1.18-2.03-2.12
	c-1.03-0.17-1.79-0.71-2.28-1.44c-1.02-0.28-1.73-0.96-2.14-1.79c-0.93-0.28-1.59-0.9-1.99-1.66c-1.22-0.21-2.05-0.96-2.5-1.91
	c-1.15-0.22-1.94-0.92-2.39-1.81c-0.84-0.33-1.44-0.94-1.8-1.68c-0.87-0.27-1.49-0.83-1.9-1.53c-1.1-0.21-1.88-0.86-2.34-1.7
	c-1.06-0.29-1.77-1.02-2.17-1.9c-0.66-0.27-1.16-0.73-1.51-1.29c-1.17-0.24-1.96-0.97-2.4-1.89c-1.05-0.2-1.79-0.81-2.26-1.58
	c-0.79-0.24-1.39-0.72-1.8-1.33c-1.09-0.3-1.84-1.04-2.23-1.96c-0.86-0.48-1.66-1.01-2.29-1.58
	c-321.41,522.56-402.83,1168.82-407.22,1205.93c-1.75,14.52,2.81,29.11,12.52,40.04c9.7,10.96,23.65,17.23,38.28,17.23h1714.1
	c0,0,51.18-22.93,51.18-51.2C3748.82,3266.18,2042.85,3231.62,2042.85,3231.62z"/>
<path d="M1950.89,3656.12c-10.88,0-21.34-1.46-31.37-4.37c-10.04-2.91-18.1-6.7-24.18-11.36l10.68-23.7
	c5.7,4.15,12.56,7.55,20.59,10.2c8.03,2.66,16.12,3.98,24.28,3.98c6.22,0,11.23-0.65,15.05-1.94c3.82-1.29,6.63-3.01,8.45-5.15
	c1.81-2.14,2.72-4.63,2.72-7.48c0-3.62-1.43-6.51-4.27-8.64c-2.85-2.14-6.64-3.89-11.36-5.24c-4.73-1.36-9.88-2.65-15.44-3.89
	c-5.57-1.23-11.17-2.72-16.8-4.47c-5.63-1.75-10.81-4.08-15.54-6.99c-4.73-2.91-8.48-6.73-11.27-11.46
	c-2.79-4.73-4.18-10.65-4.18-17.77c0-7.77,2.07-14.86,6.22-21.27c4.14-6.41,10.46-11.52,18.94-15.35
	c8.48-3.82,19.13-5.73,31.95-5.73c8.55,0,17,1.04,25.35,3.11c8.35,2.07,15.64,5.05,21.85,8.94l-9.91,23.7
	c-6.09-3.5-12.37-6.12-18.84-7.87c-6.48-1.75-12.69-2.62-18.65-2.62c-6.22,0-11.2,0.68-14.96,2.04c-3.76,1.36-6.51,3.21-8.26,5.54
	s-2.62,4.92-2.62,7.77c0,3.63,1.42,6.54,4.27,8.74c2.85,2.2,6.6,3.92,11.27,5.15c4.66,1.23,9.84,2.46,15.54,3.69
	c5.7,1.23,11.33,2.75,16.9,4.56c5.57,1.82,10.68,4.11,15.35,6.9c4.66,2.79,8.45,6.54,11.36,11.27c2.91,4.73,4.37,10.59,4.37,17.58
	c0,7.64-2.11,14.64-6.31,20.98c-4.21,6.35-10.59,11.46-19.13,15.35S1963.71,3656.12,1950.89,3656.12z"/>
<path d="M2041.99,3653.79l60.41-135.97h31.08l60.99,135.97h-33.02l-49.92-120.04h12.63l-49.92,120.04H2041.99z M2072.48,3624.65
	l7.96-23.89h70.32l8.16,23.89H2072.48z"/>
<path d="M2238.56,3653.79v-135.97h31.66v135.97H2238.56z"/>
<path d="M2332.19,3653.79v-135.97h31.66v110.33h67.79v25.64H2332.19z"/>
<path d="M2479.42,3653.79v-135.97h31.66v135.97H2479.42z"/>
<path d="M2573.05,3653.79v-135.97h26.03l80.22,97.9h-12.63v-97.9h31.08v135.97h-26.03l-80.22-97.9h12.63v97.9H2573.05z"/>
<path d="M2825.57,3656.12c-10.75,0-20.66-1.72-29.72-5.15c-9.07-3.43-16.9-8.32-23.5-14.67c-6.6-6.34-11.75-13.79-15.44-22.34
	s-5.54-17.93-5.54-28.17c0-10.23,1.85-19.62,5.54-28.17s8.9-15.99,15.64-22.34c6.73-6.34,14.63-11.23,23.7-14.67
	c9.06-3.43,19.04-5.15,29.91-5.15c12.04,0,22.89,2.01,32.54,6.02c9.65,4.02,17.77,9.84,24.38,17.48l-20.01,18.65
	c-5.05-5.31-10.49-9.23-16.32-11.75c-5.83-2.53-12.24-3.79-19.23-3.79c-6.48,0-12.43,1.07-17.87,3.21
	c-5.44,2.14-10.13,5.15-14.08,9.03c-3.95,3.88-6.99,8.48-9.13,13.79c-2.14,5.31-3.21,11.2-3.21,17.68c0,6.22,1.07,12.01,3.21,17.39
	c2.14,5.38,5.18,10,9.13,13.89c3.95,3.88,8.61,6.93,13.99,9.13c5.37,2.2,11.3,3.3,17.77,3.3c6.22,0,12.27-1.03,18.16-3.11
	c5.89-2.07,11.62-5.5,17.19-10.29l17.87,22.73c-7.51,5.7-16.12,10-25.83,12.92C2844.99,3654.66,2835.28,3656.12,2825.57,3656.12z
	 M2851.79,3634.75v-51.09h28.75v55.17L2851.79,3634.75z"/>
<path d="M3024.47,3653.79v-135.97h31.66v110.33h67.79v25.64H3024.47z"/>
<path d="M3235.23,3656.12c-10.62,0-20.46-1.75-29.53-5.24c-9.07-3.5-16.97-8.42-23.7-14.76c-6.73-6.34-11.95-13.79-15.64-22.34
	s-5.54-17.87-5.54-27.97c0-10.23,1.85-19.59,5.54-28.07c3.69-8.48,8.9-15.89,15.64-22.24c6.73-6.34,14.6-11.27,23.6-14.76
	c9-3.5,18.87-5.24,29.62-5.24c10.75,0,20.62,1.72,29.62,5.15c9,3.43,16.87,8.32,23.6,14.67c6.73,6.35,11.95,13.79,15.64,22.34
	s5.54,17.94,5.54,28.17c0,10.1-1.85,19.46-5.54,28.07c-3.69,8.61-8.9,16.09-15.64,22.44c-6.73,6.35-14.6,11.24-23.6,14.67
	C3255.85,3654.4,3245.98,3656.12,3235.23,3656.12z M3235.23,3629.51c6.09,0,11.69-1.07,16.8-3.21c5.11-2.14,9.62-5.18,13.5-9.13
	c3.89-3.95,6.9-8.55,9.03-13.79s3.21-11.1,3.21-17.58c0-6.47-1.07-12.33-3.21-17.58s-5.15-9.84-9.03-13.79
	c-3.88-3.95-8.39-6.99-13.5-9.13c-5.12-2.14-10.72-3.21-16.8-3.21c-6.09,0-11.72,1.07-16.9,3.21c-5.18,2.14-9.68,5.18-13.5,9.13
	c-3.82,3.95-6.8,8.55-8.94,13.79s-3.21,11.11-3.21,17.58c0,6.48,1.07,12.33,3.21,17.58s5.11,9.84,8.94,13.79
	c3.82,3.95,8.32,6.99,13.5,9.13C3223.51,3628.44,3229.14,3629.51,3235.23,3629.51z"/>
<path d="M3428.31,3656.12c-10.49,0-20.23-1.72-29.23-5.15c-9-3.43-16.8-8.32-23.41-14.67c-6.6-6.34-11.75-13.79-15.44-22.34
	s-5.54-17.93-5.54-28.17c0-10.23,1.85-19.62,5.54-28.17s8.87-15.99,15.54-22.34c6.67-6.34,14.5-11.23,23.5-14.67
	c9-3.43,18.74-5.15,29.23-5.15c11.78,0,22.47,2.04,32.05,6.12c9.58,4.08,17.61,10.07,24.09,17.97l-20.4,18.65
	c-4.53-5.31-9.68-9.32-15.44-12.04c-5.76-2.72-12.01-4.08-18.74-4.08c-6.35,0-12.17,1.07-17.48,3.21
	c-5.31,2.14-9.91,5.15-13.79,9.03c-3.89,3.88-6.9,8.48-9.03,13.79c-2.14,5.31-3.21,11.2-3.21,17.68c0,6.48,1.07,12.37,3.21,17.68
	c2.14,5.31,5.15,9.91,9.03,13.79c3.89,3.89,8.48,6.9,13.79,9.03c5.31,2.14,11.14,3.21,17.48,3.21c6.73,0,12.98-1.39,18.74-4.18
	c5.76-2.78,10.91-6.83,15.44-12.14l20.4,18.65c-6.48,7.9-14.5,13.92-24.09,18.06C3450.97,3654.05,3440.22,3656.12,3428.31,3656.12z"
	/>
<path class="st1" d="M3726.75,3236.93H2169.26c5.75,8.27,10.26,17.63,12.91,28.19c5.8,23.15,12.75,45.45,16.96,67.57
	c0.9,0.26,1.99,0.61,3.05,0.95h1475.29c-37.65,443.65-578.92,788.14-584.59,791.67c-22.2,13.95-29.2,43.7-15.56,66.47
	c13.6,22.78,42.69,29.95,64.83,16.03c25.84-16.12,631.8-401.36,631.8-922.52C3773.96,3258.59,3752.85,3236.93,3726.75,3236.93z"/>
<path class="st2" d="M2454.31,2029.69c-0.77,1.65-1.44,3.31-1.91,4.97c0.14,0.24,0.24,0.5,0.31,0.78c0.58-1.32,1.08-2.68,1.54-4.09
	C2454.27,2030.79,2454.29,2030.24,2454.31,2029.69z"/>
<path class="st2" d="M2441.5,2075.38c-0.33-0.06-0.63-0.16-0.91-0.29l3.9,3.1c-0.32-0.49-0.57-0.97-0.77-1.45
	C2442.73,2076.58,2441.99,2076.07,2441.5,2075.38z"/>
<path class="st2" d="M2438.68,2072.43c-1.39-0.19-2.3-1.06-2.74-2.14c-0.07,0-0.13,0.01-0.19,0.01c-0.6,0-1.12-0.11-1.57-0.31
	l5.28,4.2C2439.05,2073.68,2438.79,2073.07,2438.68,2072.43z"/>
<path class="st2" d="M2432.18,2067.3c-1.66-0.12-2.7-1.15-3.11-2.42c-0.03,0-0.06,0-0.1,0c-0.64,0-1.19-0.13-1.66-0.36l5.58,4.44
	C2432.53,2068.48,2432.29,2067.9,2432.18,2067.3z"/>
<path class="st2" d="M2415.85,2054.98c-0.2-0.01-0.4-0.02-0.58-0.06l3.38,2.69c-0.23-0.36-0.4-0.77-0.5-1.19
	C2417.1,2056.26,2416.34,2055.71,2415.85,2054.98z"/>
<path class="st2" d="M2529.59,1783.45c-0.36-0.1-0.72-0.19-1.07-0.3c-2.08-0.6-2.86-2.29-2.63-3.92c-2.74-0.64-5.54-1.15-8.31-1.28
	c2.8,3.56,6.33,6.55,9.56,9.76c0.12,0.12,0.24,0.26,0.36,0.38c1.41-0.2,2.82-0.51,4.25-0.51c0.68,0,1.36,0.06,2.03,0.14
	c-0.78-0.48-1.57-0.96-2.36-1.42C2530.22,1785.59,2529.66,1784.53,2529.59,1783.45z"/>
<path class="st2" d="M2637.44,1808.2c-0.78-0.64-1.58-1.26-2.37-1.89c0.21,0.45,0.4,0.91,0.56,1.36c0.5,0.06,1.01,0.24,1.5,0.58
	c0.07,0.05,0.14,0.11,0.21,0.17c0.05-0.06,0.1-0.12,0.15-0.18C2637.47,1808.23,2637.45,1808.22,2637.44,1808.2z"/>
<path class="st2" d="M2608.58,1757.22c-0.04-0.08-0.1-0.14-0.14-0.22c-0.96-0.38-1.61-1.14-1.94-2.04
	c-0.29-0.08-0.55-0.19-0.79-0.32c0.85,1.2,1.7,2.4,2.59,3.53C2608.35,1757.84,2608.45,1757.52,2608.58,1757.22z"/>
<path class="st2" d="M2423.93,2061.06c-0.47-0.2-0.86-0.5-1.18-0.85c-0.52-0.24-0.93-0.6-1.25-1.03c-0.43-0.01-0.81-0.09-1.16-0.21
	l5.83,4.64c-0.33-0.41-0.55-0.88-0.69-1.39C2424.83,2061.99,2424.31,2061.57,2423.93,2061.06z"/>
<g>
	<radialGradient id="SVGID_1_" cx="2533.8115" cy="1901.0775" r="174.7181" gradientUnits="userSpaceOnUse">
		<stop  offset="0" style="stop-color:#F2AE2E"/>
		<stop  offset="0.3709" style="stop-color:#F29E23"/>
		<stop  offset="1" style="stop-color:#F2790A"/>
	</radialGradient>
	<path class="st3" d="M2416.69,1899.85c0-4.86-5.06-9.72-9.73-9.72h-49.03c-4.67,0-9.72,4.86-9.72,9.72c0,4.87,5.06,9.73,9.72,9.73
		h49.03C2411.63,1909.58,2416.69,1904.72,2416.69,1899.85z"/>
	<radialGradient id="SVGID_2_" cx="2532.9587" cy="1893.7434" r="164.1806" gradientUnits="userSpaceOnUse">
		<stop  offset="0" style="stop-color:#F2AE2E"/>
		<stop  offset="0.3709" style="stop-color:#F29E23"/>
		<stop  offset="1" style="stop-color:#F2790A"/>
	</radialGradient>
	<path class="st4" d="M2462.99,1794.99c2.34,4.86,9.73,7.4,12.06,2.53c5.07-2.53,7.78-7.39,5.07-12.26l-26.85-41.43
		c-2.34-4.87-17.12,4.86-14.79,7.19L2462.99,1794.99z"/>
	<radialGradient id="SVGID_3_" cx="2533.8115" cy="1901.0775" r="174.7181" gradientUnits="userSpaceOnUse">
		<stop  offset="0" style="stop-color:#F2AE2E"/>
		<stop  offset="0.3709" style="stop-color:#F29E23"/>
		<stop  offset="1" style="stop-color:#F2790A"/>
	</radialGradient>
	<path class="st5" d="M2397.24,1831.57l21.78,12.25c5.06,2.34,9.73,2.34,14.79-2.53c2.34-4.86,0-9.72-5.06-12.06l-21.79-14.78
		c-5.06-2.34-9.72,0-12.45,4.86C2389.84,1821.84,2392.18,1829.23,2397.24,1831.57z"/>
	<radialGradient id="SVGID_4_" cx="2533.8115" cy="1901.0775" r="174.7181" gradientUnits="userSpaceOnUse">
		<stop  offset="0" style="stop-color:#F2AE2E"/>
		<stop  offset="0.3709" style="stop-color:#F29E23"/>
		<stop  offset="1" style="stop-color:#F2790A"/>
	</radialGradient>
	<path class="st6" d="M2533.81,1782.93c7.4,0,9.73-2.53,9.73-7.39v-26.85c0-4.86-2.33-9.73-9.73-9.73c-5.06,0-7.39,4.87-7.39,9.73
		v26.85C2526.42,1780.4,2528.75,1782.93,2533.81,1782.93z"/>
	<radialGradient id="SVGID_5_" cx="2533.8115" cy="1901.0775" r="174.7181" gradientUnits="userSpaceOnUse">
		<stop  offset="0" style="stop-color:#F2AE2E"/>
		<stop  offset="0.3709" style="stop-color:#F29E23"/>
		<stop  offset="1" style="stop-color:#F2790A"/>
	</radialGradient>
	<path class="st7" d="M2606.96,1797.52l24.52-43.97c2.33-4.86,0-9.72-4.67-12.06c-2.72-2.53-9.72-2.53-12.45,2.34l-24.12,43.96
		c-2.72,4.87,0,9.73,2.33,12.06C2597.24,1802.39,2604.63,1799.85,2606.96,1797.52z"/>
	<radialGradient id="SVGID_6_" cx="2533.8115" cy="1901.0775" r="174.7181" gradientUnits="userSpaceOnUse">
		<stop  offset="0" style="stop-color:#F2AE2E"/>
		<stop  offset="0.3709" style="stop-color:#F29E23"/>
		<stop  offset="1" style="stop-color:#F2790A"/>
	</radialGradient>
	<path class="st8" d="M2648.59,1846.16l22.18-12.06c4.67-2.53,7-9.73,4.67-12.26c-2.34-4.86-9.73-7.39-12.06-4.86l-24.52,14.59
		c-5.06,2.53-5.06,7.39-2.33,12.25C2638.86,1848.69,2643.92,1848.69,2648.59,1846.16z"/>
	<radialGradient id="SVGID_7_" cx="2533.8115" cy="1901.0775" r="174.7181" gradientUnits="userSpaceOnUse">
		<stop  offset="0" style="stop-color:#F2AE2E"/>
		<stop  offset="0.3709" style="stop-color:#F29E23"/>
		<stop  offset="1" style="stop-color:#F2790A"/>
	</radialGradient>
	<path class="st9" d="M2477.64,2006.75c-0.26-0.31-0.47-0.66-0.65-1.01c-0.41-0.54-0.9-1.04-1.44-1.51
		c-0.26-0.17-0.5-0.36-0.72-0.58c-0.64-0.47-1.34-0.9-2.12-1.26c-2.33-2.53-9.73-2.53-12.06,2.34l-24.51,43.96
		c-2.34,4.87,0,9.73,2.33,12.06c4.46,2.23,8.61,0.53,13-1.5c0.47-0.44,1.08-0.75,1.82-0.88l17.32-30.93
		c0.12-0.26,0.25-0.5,0.42-0.75l6.74-12.05c0,0,0,0,0,0c0.11-0.29,0.2-0.58,0.29-0.88c0.16-0.57,0.33-1.15,0.51-1.73
		C2478.87,2010.13,2478.52,2008.33,2477.64,2006.75z"/>
	<radialGradient id="SVGID_8_" cx="2533.8115" cy="1901.0775" r="174.7181" gradientUnits="userSpaceOnUse">
		<stop  offset="0" style="stop-color:#F2AE2E"/>
		<stop  offset="0.3709" style="stop-color:#F29E23"/>
		<stop  offset="1" style="stop-color:#F2790A"/>
	</radialGradient>
	<path class="st10" d="M2604.63,2007.25c-2.33-4.87-9.73-7.4-14.39-4.87c-2.72,2.34-5.06,9.73-2.72,12.26l24.51,43.77
		c2.34,4.87,9.73,7.2,12.06,4.87c5.06-2.54,7.4-9.73,5.06-14.6L2604.63,2007.25z"/>
	<radialGradient id="SVGID_9_" cx="2533.8115" cy="1901.0775" r="174.7181" gradientUnits="userSpaceOnUse">
		<stop  offset="0" style="stop-color:#F2AE2E"/>
		<stop  offset="0.3709" style="stop-color:#F29E23"/>
		<stop  offset="1" style="stop-color:#F2790A"/>
	</radialGradient>
	<path class="st11" d="M2531.48,2016.97c-5.06,0-7.4,4.87-7.4,9.73v26.85c0,4.86,2.34,9.73,7.4,9.73c5.06,0,9.73-4.87,9.73-9.73
		v-26.85C2541.2,2021.84,2536.53,2016.97,2531.48,2016.97z"/>
	<radialGradient id="SVGID_10_" cx="2533.8115" cy="1901.0775" r="174.7181" gradientUnits="userSpaceOnUse">
		<stop  offset="0" style="stop-color:#F2AE2E"/>
		<stop  offset="0.3709" style="stop-color:#F29E23"/>
		<stop  offset="1" style="stop-color:#F2790A"/>
	</radialGradient>
	<path class="st12" d="M2431.47,1958.4c-2.73-4.85-7.39-4.85-12.45-2.52l-24.51,12.26c-2.33,2.53-4.67,7.39-2.33,12.26
		c2.33,4.86,7.39,7.39,12.45,4.86l24.12-14.59c2.67-2.48,4.96-7.21,2.84-11.99C2431.55,1958.59,2431.51,1958.5,2431.47,1958.4z"/>
	<radialGradient id="SVGID_11_" cx="2533.8115" cy="1901.0775" r="174.7181" gradientUnits="userSpaceOnUse">
		<stop  offset="0" style="stop-color:#F2AE2E"/>
		<stop  offset="0.3709" style="stop-color:#F29E23"/>
		<stop  offset="1" style="stop-color:#F2790A"/>
	</radialGradient>
	<path class="st13" d="M2670.77,1970.67l-24.51-12.26c-2.34-4.86-9.73-2.53-12.45,2.53c-2.33,4.87,0,9.73,5.06,12.06l21.79,14.79
		c5.06,2.34,10.11,0,12.45-5.06C2675.44,1977.87,2675.44,1973,2670.77,1970.67z"/>
	<radialGradient id="SVGID_12_" cx="2533.8115" cy="1901.0701" r="174.724" gradientUnits="userSpaceOnUse">
		<stop  offset="0" style="stop-color:#F2AE2E"/>
		<stop  offset="0.3709" style="stop-color:#F29E23"/>
		<stop  offset="1" style="stop-color:#F2790A"/>
	</radialGradient>
	<path class="st14" d="M2587.51,1807.25c-50.97-29.38-117.12-12.26-149.03,38.91c-21.31,37.51-17.92,84.05,6.38,117.79
		c1,1.19,1.94,2.44,2.81,3.72c2.3,2.91,4.76,5.72,7.39,8.4c0.65,0.63,1.29,1.26,1.93,1.88c0.4,0.39,0.8,0.79,1.21,1.2
		c3.36,3.15,6.95,6.11,10.78,8.85c0.89,0.55,1.77,1.13,2.59,1.8c2.74,1.84,5.58,3.57,8.54,5.18c10.3,5.85,21.17,9.84,32.22,12.08
		c0.31,0.03,0.6,0.09,0.89,0.18c43.79,8.49,90.1-10.57,113.58-51.37C2658.32,1902.38,2638.86,1836.43,2587.51,1807.25z"/>
	<radialGradient id="SVGID_13_" cx="2533.8115" cy="1901.0775" r="174.7181" gradientUnits="userSpaceOnUse">
		<stop  offset="0" style="stop-color:#F2AE2E"/>
		<stop  offset="0.3709" style="stop-color:#F29E23"/>
		<stop  offset="1" style="stop-color:#F2790A"/>
	</radialGradient>
	<path class="st15" d="M2709.68,1892.66h-49.03c-4.67,0-9.73,4.86-9.73,9.72c0,4.87,5.06,9.73,9.73,9.73h49.03
		c4.67,0,9.73-4.86,9.73-9.73C2719.41,1897.52,2714.35,1892.66,2709.68,1892.66z"/>
</g>
</svg>
